<?xml version="1.0" standalone="no"?>
<!DOCTYPE svg PUBLIC "-//W3C//DTD SVG 20010904//EN"
 "http://www.w3.org/TR/2001/REC-SVG-20010904/DTD/svg10.dtd">
<svg version="1.0" xmlns="http://www.w3.org/2000/svg"
 width="9138.000000pt" height="3794.000000pt" viewBox="0 0 9138.000000 3794.000000"
 preserveAspectRatio="xMidYMid meet">

<g transform="translate(0.000000,3794.000000) scale(0.100000,-0.100000)"
fill="#000000" stroke="none">
<path d="M42390 18970 l0 -7260 185 0 185 0 0 7260 0 7260 -185 0 -185 0 0
-7260z"/>
<path d="M29328 25228 c-14 -18 -863 -1185 -1888 -2593 -1025 -1408 -1874
-2575 -1888 -2592 l-24 -33 668 0 669 1 32 67 c131 270 446 417 737 342 241
-61 416 -238 477 -481 55 -216 -14 -455 -176 -613 -121 -119 -254 -176 -425
-184 -125 -5 -210 12 -315 63 -133 65 -256 190 -307 313 l-22 52 -830 -2 -831
-3 -562 -770 c-309 -423 -562 -776 -562 -782 -1 -10 176 -13 852 -13 l854 0
38 78 c53 107 179 234 285 285 102 50 187 70 295 70 406 0 713 -365 641 -763
-67 -374 -439 -610 -810 -514 -175 45 -349 191 -418 351 l-23 53 -1025 0
-1025 0 -1435 -1971 c-789 -1084 -1436 -1975 -1438 -1980 -2 -5 1042 -9 2495
-9 l2500 0 20 23 c11 12 791 1082 1733 2377 942 1295 1718 2361 1725 2368 10
11 339 -436 1710 -2320 934 -1283 1718 -2359 1742 -2390 l44 -58 2500 0 c1374
0 2499 2 2499 5 0 3 -607 839 -1348 1858 -742 1019 -1389 1907 -1437 1975
l-89 122 -1026 0 -1025 0 -23 -53 c-111 -257 -416 -415 -702 -363 -246 44
-450 233 -516 476 -21 79 -24 232 -5 310 72 296 333 503 636 503 108 0 193
-20 295 -70 106 -51 232 -178 285 -285 l38 -78 854 0 c724 0 854 2 851 14 -2
8 -255 361 -563 784 l-560 771 -831 0 -830 1 -22 -52 c-12 -29 -45 -83 -72
-120 -194 -263 -572 -337 -857 -166 -235 140 -361 443 -295 706 33 131 75 205
172 303 96 98 180 147 308 180 288 73 608 -76 735 -343 l32 -68 669 0 668 0
-24 33 c-13 17 -867 1191 -1898 2607 -1030 1416 -1881 2583 -1890 2593 -16 17
-18 17 -42 -15z"/>
<path d="M49355 24450 c-162 -22 -326 -91 -441 -188 -81 -68 -184 -192 -258
-312 -58 -94 -2888 -5261 -2917 -5325 -26 -58 -34 -118 -19 -145 26 -49 34
-50 695 -50 671 0 652 -2 710 58 17 17 167 285 335 596 l305 566 2025 0 2025
0 318 -579 c174 -318 325 -585 335 -594 51 -47 55 -47 696 -47 422 0 612 3
629 11 54 24 61 103 18 188 -93 183 -2894 5253 -2945 5331 -130 199 -247 310
-411 391 -115 57 -213 84 -356 99 -116 11 -654 11 -744 0z m498 -1238 c22 -13
186 -307 714 -1277 376 -693 687 -1266 690 -1272 4 -10 -294 -13 -1471 -13
-812 0 -1476 2 -1476 4 0 5 1329 2486 1347 2514 36 58 137 81 196 44z"/>
<path d="M54736 24449 c-62 -10 -123 -52 -149 -102 -10 -20 -23 -72 -28 -115
-6 -46 -8 -1203 -7 -2852 l3 -2775 21 -45 c29 -63 81 -106 146 -120 39 -8 629
-10 2293 -8 2438 4 2295 1 2660 59 507 81 906 258 1187 527 356 340 547 819
598 1500 8 98 10 437 7 1022 -4 916 -5 927 -52 1200 -93 543 -334 978 -685
1236 -229 169 -452 269 -795 357 -262 67 -494 100 -830 117 -242 12 -4297 12
-4369 -1z m4469 -1212 c523 -79 768 -270 879 -687 61 -225 61 -231 61 -1115 0
-791 -1 -813 -22 -930 -30 -163 -66 -285 -113 -380 -139 -285 -421 -438 -889
-485 -65 -6 -667 -10 -1647 -10 l-1543 0 -28 24 -28 24 0 1760 c0 1746 0 1760
20 1782 11 12 29 26 40 31 11 4 727 7 1590 5 1406 -2 1581 -4 1680 -19z"/>
<path d="M65405 24449 c-101 -13 -197 -44 -300 -97 -73 -38 -109 -65 -190
-147 -61 -61 -127 -139 -167 -200 -83 -125 -2935 -5330 -2960 -5404 -27 -77
-21 -120 21 -148 l34 -23 621 0 c581 0 624 2 661 19 23 10 52 32 66 48 14 16
161 282 328 591 l304 562 2025 -2 2026 -3 312 -569 c172 -312 322 -579 335
-592 52 -55 51 -55 717 -52 l614 3 25 29 c54 64 146 -112 -1447 2777 -804
1459 -1485 2687 -1513 2729 -205 306 -430 447 -765 480 -119 12 -651 11 -747
-1z m515 -1246 c18 -18 286 -501 714 -1288 l684 -1260 -1470 -3 c-809 -1
-1473 0 -1476 2 -7 8 1329 2499 1357 2530 33 36 55 45 113 45 39 1 53 -4 78
-26z"/>
<path d="M45712 16717 c-9 -11 -12 -132 -10 -473 l3 -459 90 -3 c76 -2 92 0
102 14 9 12 13 58 13 145 l0 128 328 4 c221 2 339 7 364 16 50 16 94 54 121
105 20 38 22 55 22 206 0 152 -2 168 -22 207 -25 46 -69 83 -123 104 -54 20
-872 26 -888 6z m782 -187 c14 -5 32 -23 41 -39 18 -36 20 -149 3 -186 -23
-52 -43 -55 -348 -55 l-280 0 0 145 0 145 279 0 c154 0 291 -4 305 -10z"/>
<path d="M46906 16715 c-14 -15 -16 -64 -16 -464 0 -334 3 -450 12 -459 7 -7
45 -12 99 -12 70 0 88 3 93 16 3 9 6 76 6 150 l0 134 218 0 218 0 113 -150
114 -150 104 0 c81 0 105 3 109 14 4 9 -39 70 -110 157 -63 78 -113 146 -110
151 3 4 12 8 20 8 28 0 93 40 117 72 40 53 52 104 52 223 0 131 -15 189 -61
244 -63 73 -74 75 -545 79 -375 3 -418 2 -433 -13z m805 -204 c28 -28 29 -34
29 -115 0 -81 -2 -88 -29 -118 l-29 -33 -291 -3 -291 -3 0 150 0 151 291 0
291 0 29 -29z"/>
<path d="M48342 16719 c-127 -21 -208 -84 -240 -189 -14 -45 -17 -95 -17 -275
0 -267 10 -313 84 -386 79 -79 106 -84 501 -84 395 0 420 4 499 83 74 74 83
121 79 412 -3 220 -4 238 -26 285 -43 92 -105 134 -233 154 -76 13 -571 12
-647 0z m633 -193 c62 -26 70 -56 70 -271 0 -296 15 -285 -375 -285 -390 0
-380 -7 -380 285 0 292 -9 285 378 285 213 0 280 -3 307 -14z"/>
<path d="M50105 16718 c-2 -7 -6 -157 -7 -333 -4 -445 32 -408 -408 -415
l-315 -5 0 -90 0 -90 300 -3 c325 -3 409 5 483 42 59 30 85 58 114 121 23 49
23 55 23 415 l0 365 -93 3 c-68 2 -94 -1 -97 -10z"/>
<path d="M50732 16719 c-127 -21 -208 -84 -240 -189 -14 -45 -17 -95 -17 -275
0 -267 10 -313 84 -386 80 -81 102 -84 536 -84 l370 0 0 90 0 90 -355 5 c-262
4 -361 8 -377 18 -34 19 -54 66 -56 130 l-2 57 389 3 c297 2 392 5 398 15 9
14 11 108 2 131 -5 14 -50 16 -401 16 l-396 0 7 55 c8 68 22 100 55 122 23 16
63 19 381 23 l355 5 0 90 0 90 -340 1 c-187 1 -364 -2 -393 -7z"/>
<path d="M51587 16723 c-4 -3 -7 -46 -7 -95 l0 -88 225 0 225 0 2 -377 3 -378
95 0 95 0 5 375 5 375 225 5 225 5 3 84 c2 61 -1 87 -10 92 -15 10 -1082 12
-1091 2z"/>
<path d="M53035 16719 c-89 -13 -163 -55 -202 -112 -48 -71 -55 -128 -51 -385
3 -212 5 -230 26 -277 13 -27 33 -60 45 -73 33 -36 108 -70 178 -82 83 -13
575 -13 659 0 97 16 166 53 201 108 45 71 51 103 56 307 8 285 -12 375 -97
447 -76 66 -108 71 -450 74 -168 1 -332 -2 -365 -7z m630 -193 c19 -8 44 -30
55 -48 19 -31 20 -46 18 -235 l-3 -203 -33 -32 -32 -33 -289 -3 c-412 -4 -396
-15 -396 283 0 213 8 244 68 270 47 21 563 21 612 1z"/>
<path d="M54257 16716 c-66 -18 -98 -43 -127 -102 -22 -43 -25 -61 -24 -159 1
-153 29 -215 119 -256 36 -17 70 -19 343 -19 l303 0 26 -26 c23 -23 25 -31 21
-90 -2 -35 -10 -70 -16 -76 -10 -10 -109 -14 -400 -18 l-387 -5 0 -90 0 -90
405 -3 c455 -3 487 1 545 62 42 45 55 95 55 216 0 125 -13 173 -61 221 -54 54
-88 59 -418 59 -278 0 -292 1 -311 20 -25 25 -28 124 -4 158 l15 22 363 0
c268 0 365 3 374 12 7 7 12 41 12 83 0 42 -5 76 -12 83 -18 18 -754 16 -821
-2z"/>
<path d="M55982 16719 c-127 -21 -208 -84 -240 -189 -14 -45 -17 -95 -17 -275
0 -267 10 -313 84 -386 80 -81 102 -84 536 -84 l370 0 0 90 0 90 -355 5 c-262
4 -361 8 -377 18 -33 19 -52 63 -55 129 l-3 58 389 3 c297 2 392 5 398 15 9
14 11 108 2 131 -5 14 -50 16 -401 16 l-395 0 7 57 c9 70 21 98 54 120 23 16
63 19 381 23 l355 5 0 90 0 90 -340 1 c-187 1 -364 -2 -393 -7z"/>
<path d="M56951 16722 c-13 -4 -34 -20 -45 -35 -20 -28 -21 -40 -24 -456 -3
-365 -1 -429 11 -440 10 -8 44 -11 99 -9 l83 3 3 373 c2 369 2 373 23 370 16
-2 50 -69 166 -328 80 -179 157 -340 171 -359 33 -44 77 -61 162 -61 85 0 129
17 163 61 13 19 90 180 170 359 117 260 150 326 166 328 21 3 21 0 23 -370 l3
-373 83 -3 c53 -2 89 1 98 9 12 9 14 79 14 408 -1 218 -5 416 -9 440 -15 76
-33 85 -169 89 -150 5 -181 -6 -215 -75 -14 -26 -84 -187 -157 -358 -74 -170
-138 -316 -143 -323 -30 -39 -46 -12 -199 343 -101 237 -160 360 -179 380 -29
30 -30 30 -152 32 -67 1 -133 -1 -146 -5z"/>
<path d="M59202 16719 c-127 -21 -208 -84 -240 -189 -14 -45 -17 -95 -17 -275
0 -267 10 -313 84 -386 80 -81 102 -84 536 -84 l370 0 0 90 0 90 -355 5 c-262
4 -361 8 -377 18 -34 19 -54 66 -56 130 l-2 57 389 3 c297 2 392 5 398 15 9
14 11 108 2 131 -5 14 -50 16 -401 16 l-396 0 7 55 c8 68 22 100 55 122 23 16
63 19 381 23 l355 5 0 90 0 90 -340 1 c-187 1 -364 -2 -393 -7z"/>
<path d="M60163 16716 c-58 -26 -58 -23 -61 -484 -2 -319 0 -427 9 -438 9 -11
32 -14 98 -12 l86 3 5 370 c5 356 6 370 24 370 14 0 100 -106 290 -355 202
-265 280 -359 306 -372 26 -14 60 -18 133 -18 114 0 158 14 175 56 9 21 12
145 10 459 l-3 430 -83 3 c-53 2 -89 -1 -98 -9 -12 -9 -14 -75 -14 -376 0
-353 -1 -364 -19 -361 -12 2 -127 145 -290 360 -150 197 -282 363 -294 370
-34 19 -234 22 -274 4z"/>
<path d="M61675 16719 c-88 -13 -163 -54 -202 -112 -47 -71 -55 -126 -51 -384
3 -215 4 -231 27 -281 29 -64 83 -113 154 -137 46 -17 93 -19 412 -22 359 -4
360 -4 405 19 76 39 81 57 78 313 l-3 220 -304 3 c-237 2 -306 -1 -313 -10
-13 -22 -9 -124 5 -137 9 -7 89 -12 223 -13 l209 -3 3 -45 c5 -62 -6 -127 -24
-145 -22 -22 -547 -22 -599 -1 -62 26 -70 56 -70 273 0 179 1 193 21 220 43
57 45 58 464 61 282 2 387 6 392 15 13 20 9 152 -4 165 -14 14 -725 15 -823 1z"/>
<path d="M62927 16719 c-115 -17 -180 -63 -226 -159 -26 -55 -26 -57 -26 -300
0 -214 2 -252 19 -299 24 -69 77 -122 152 -152 58 -23 64 -24 439 -24 l380 0
3 84 c2 61 -1 87 -10 92 -7 5 -163 9 -346 9 -361 0 -384 3 -417 54 -10 14 -20
55 -23 91 l-5 65 397 0 397 0 -3 78 -3 77 -392 3 -393 2 1 43 c0 59 19 107 52
131 27 20 43 21 385 26 l357 5 3 84 c2 61 -1 87 -10 92 -17 11 -656 9 -731 -2z"/>
<path d="M63904 16724 c-12 -3 -32 -16 -45 -30 l-24 -26 0 -441 0 -442 95 0
95 0 3 373 c2 353 3 372 21 372 12 0 104 -113 279 -342 143 -189 275 -356 292
-373 l31 -30 129 0 c128 0 130 0 157 28 l28 27 3 440 3 439 -23 6 c-13 3 -57
5 -98 3 l-75 -3 -3 -372 c-2 -355 -3 -373 -21 -373 -12 0 -106 115 -290 358
-149 197 -282 364 -294 372 -22 14 -215 24 -263 14z"/>
<path d="M65162 16718 c-19 -19 -17 -911 2 -927 9 -8 46 -11 103 -9 l88 3 3
193 2 192 315 0 315 0 0 -179 c0 -99 3 -186 6 -195 5 -13 23 -16 93 -16 54 0
92 5 99 12 17 17 17 909 0 926 -7 7 -43 12 -93 12 -50 0 -86 -5 -93 -12 -8 -8
-12 -65 -12 -190 l0 -178 -315 0 -315 0 0 178 c0 125 -4 182 -12 190 -7 7 -43
12 -93 12 -50 0 -86 -5 -93 -12z"/>
<path d="M66844 16716 c-17 -8 -43 -29 -57 -47 -42 -58 -478 -869 -472 -879 3
-6 50 -10 104 -10 113 0 106 -5 167 109 l40 76 321 3 322 2 47 -87 c26 -49 52
-91 58 -95 6 -4 55 -8 109 -8 81 0 97 3 97 15 0 20 -443 829 -479 875 -16 19
-43 40 -62 47 -46 16 -157 15 -195 -1z m227 -382 l108 -199 -226 -3 c-124 -1
-228 -1 -230 2 -4 4 155 309 194 369 13 21 29 37 35 35 6 -2 60 -94 119 -204z"/>
<path d="M67712 16717 c-9 -11 -12 -132 -10 -473 l3 -459 95 0 95 0 3 148 3
147 222 0 222 -1 110 -147 110 -147 109 0 c66 0 111 4 113 10 2 6 -49 74 -112
152 -63 78 -115 146 -115 150 0 5 20 14 44 21 60 16 111 68 131 134 9 33 15
92 15 164 0 169 -31 237 -129 283 l-56 26 -421 3 c-354 3 -422 1 -432 -11z
m790 -188 c47 -25 65 -160 30 -229 -28 -56 -56 -61 -361 -58 l-266 3 -3 134
c-1 74 0 141 2 148 7 17 566 19 598 2z"/>
<path d="M68932 16718 c-19 -19 -17 -911 2 -927 9 -8 46 -11 103 -9 l88 3 3
459 c1 330 -1 463 -9 472 -15 18 -170 19 -187 2z"/>
<path d="M69774 16716 c-17 -8 -43 -29 -56 -47 -43 -58 -479 -869 -473 -880 7
-11 195 -12 211 -1 6 4 32 46 58 95 l47 87 319 0 319 0 40 -72 c68 -125 57
-118 171 -118 86 0 100 2 100 16 0 24 -457 854 -488 887 -14 15 -42 32 -61 37
-51 14 -150 12 -187 -4z m228 -382 l108 -199 -227 -3 c-124 -1 -228 -1 -230 1
-4 4 192 373 210 395 5 7 15 11 21 9 6 -2 59 -93 118 -203z"/>
<path d="M59387 14873 c-4 -3 -7 -19 -7 -34 0 -15 -4 -39 -10 -53 -8 -23 -15
-26 -55 -26 -37 0 -56 8 -110 45 -78 53 -117 65 -213 65 -122 0 -160 -35 -165
-152 l-2 -63 65 0 65 0 5 45 c8 62 15 70 64 70 32 0 54 -8 86 -31 82 -59 147
-83 230 -83 126 1 170 42 170 163 l0 61 -58 0 c-32 0 -62 -3 -65 -7z"/>
<path d="M45712 14578 c-9 -9 -12 -126 -12 -464 0 -379 2 -453 14 -463 11 -9
114 -11 403 -9 364 3 392 5 451 25 74 25 123 60 158 113 44 66 54 128 54 336
0 163 -3 202 -20 256 -37 119 -125 186 -276 208 -103 15 -757 13 -772 -2z
m759 -189 c50 -17 86 -55 98 -104 14 -56 14 -288 0 -340 -14 -51 -53 -92 -98
-105 -20 -5 -154 -10 -298 -10 l-263 0 0 285 0 285 264 0 c170 0 275 -4 297
-11z"/>
<path d="M47205 14579 c-128 -18 -210 -87 -240 -199 -18 -67 -21 -442 -4 -520
16 -73 64 -140 125 -172 78 -42 155 -49 524 -46 l335 3 3 78 c2 50 -1 84 -9
93 -9 12 -71 14 -348 14 -300 0 -340 2 -371 18 -45 22 -70 72 -70 139 l0 53
393 2 392 3 0 75 0 75 -392 3 -393 2 0 45 c0 59 21 109 56 132 25 16 61 18
384 23 l355 5 3 78 c2 50 -1 84 -9 93 -9 12 -69 14 -343 13 -182 -1 -358 -5
-391 -10z"/>
<path d="M48810 14579 c-144 -21 -224 -96 -249 -234 -15 -81 -14 -395 2 -471
18 -83 58 -148 111 -179 81 -48 149 -55 528 -55 333 0 348 1 358 19 12 23 13
140 2 158 -5 9 -102 13 -362 15 -386 3 -385 3 -420 61 -18 29 -20 51 -20 215
0 207 7 239 62 269 30 16 67 18 383 21 255 3 352 7 357 15 11 18 10 135 -2
158 -10 18 -24 19 -353 18 -188 -1 -367 -5 -397 -10z"/>
<path d="M49962 14579 c-127 -21 -204 -81 -238 -187 -16 -49 -19 -89 -19 -277
0 -266 9 -308 83 -385 78 -81 104 -85 502 -85 386 0 418 5 495 76 75 69 80 94
80 399 0 231 -2 270 -18 302 -42 90 -113 137 -238 157 -76 13 -571 12 -647 0z
m633 -193 c65 -28 70 -46 70 -271 0 -298 17 -285 -377 -285 -387 0 -378 -7
-378 285 0 292 -9 285 378 285 213 0 280 -3 307 -14z"/>
<path d="M51102 14575 c-18 -8 -37 -26 -42 -40 -6 -17 -9 -188 -8 -458 l3
-432 90 0 90 0 5 370 c5 358 6 370 24 370 16 0 48 -61 171 -335 167 -370 182
-394 260 -406 73 -11 162 0 193 23 44 32 61 64 212 401 111 247 149 322 162
322 17 0 18 -22 18 -364 0 -300 2 -366 14 -375 9 -8 45 -11 98 -9 l83 3 3 419
c1 274 -1 432 -8 458 -16 59 -53 71 -202 66 -115 -3 -118 -4 -147 -33 -20 -21
-73 -132 -169 -355 -77 -179 -146 -337 -153 -352 -13 -29 -40 -37 -56 -15 -6
6 -75 162 -153 345 -79 183 -152 346 -161 362 -12 18 -32 33 -56 39 -56 16
-231 13 -271 -4z"/>
<path d="M52676 14575 c-14 -15 -16 -64 -16 -464 0 -334 3 -450 12 -459 7 -7
45 -12 99 -12 70 0 88 3 93 16 3 9 6 73 6 144 l0 129 333 3 c312 3 335 4 377
24 56 26 105 81 122 136 17 57 16 280 -1 338 -16 56 -81 123 -136 141 -29 9
-150 14 -456 16 -375 4 -418 3 -433 -12z m805 -204 c28 -28 29 -34 29 -115 0
-75 -3 -88 -24 -113 l-24 -28 -296 -3 -296 -3 0 146 0 145 291 0 291 0 29 -29z"/>
<path d="M53860 14575 c-9 -10 -11 -98 -8 -352 5 -394 9 -417 87 -495 78 -78
107 -83 486 -83 379 0 408 5 486 83 77 77 81 100 87 495 3 258 1 341 -8 352
-9 11 -34 15 -90 15 -43 0 -85 -3 -94 -6 -14 -5 -16 -44 -17 -323 0 -353 -3
-373 -59 -406 -33 -19 -51 -20 -305 -20 -242 0 -273 2 -303 18 -59 32 -62 51
-62 400 0 230 -3 316 -12 325 -18 18 -172 16 -188 -3z"/>
<path d="M55124 14577 c-3 -8 -4 -49 -2 -93 l3 -79 223 -3 222 -2 0 -363 c0
-277 3 -367 13 -381 10 -14 26 -16 102 -14 l90 3 3 378 2 377 225 0 226 0 -3
93 -3 92 -548 3 c-452 2 -548 0 -553 -11z"/>
<path d="M56644 14576 c-17 -8 -41 -27 -53 -44 -47 -67 -480 -877 -473 -884 5
-5 55 -7 112 -6 l103 3 49 93 50 92 319 0 320 0 17 -31 c9 -17 33 -58 52 -92
l35 -62 99 -3 c55 -1 103 1 108 6 10 10 -435 829 -482 884 -18 23 -45 41 -68
48 -51 14 -151 12 -188 -4z m229 -380 c60 -109 107 -200 104 -202 -2 -2 -106
-3 -230 -2 l-226 3 102 190 c120 225 116 217 130 212 7 -2 61 -92 120 -201z"/>
<path d="M57695 14579 c-82 -12 -162 -55 -197 -104 -47 -69 -58 -136 -58 -365
0 -227 10 -287 58 -355 36 -52 110 -91 198 -105 41 -6 204 -9 409 -8 l340 3 0
90 0 90 -355 5 c-318 4 -359 7 -383 23 -55 36 -62 58 -66 226 -5 241 14 291
118 311 30 5 197 10 373 10 l319 0 -3 93 -3 92 -345 1 c-190 1 -372 -2 -405
-7z"/>
<path d="M59065 14576 c-16 -7 -38 -22 -48 -33 -29 -33 -488 -884 -482 -894 4
-5 53 -9 110 -9 l104 0 51 95 51 95 319 0 319 0 37 -67 c72 -131 61 -123 175
-123 86 0 99 2 99 17 0 24 -456 852 -488 886 -14 15 -42 32 -61 37 -50 14
-150 12 -186 -4z m228 -381 c59 -109 107 -200 107 -202 0 -2 -103 -3 -230 -3
-126 0 -230 2 -230 3 0 6 189 358 207 385 8 13 20 22 26 19 7 -2 60 -93 120
-202z"/>
<path d="M60115 14579 c-83 -12 -160 -52 -196 -102 -54 -74 -61 -120 -57 -384
3 -226 4 -241 27 -291 30 -66 85 -114 159 -138 51 -17 91 -19 397 -19 289 1
347 3 388 17 94 32 143 81 175 175 25 74 24 475 -1 556 -33 106 -110 164 -248
186 -76 13 -558 12 -644 0z m635 -197 c62 -30 70 -62 70 -267 0 -292 9 -285
-378 -285 -390 0 -375 -10 -380 266 -3 166 -2 187 17 229 32 72 41 74 361 75
242 0 279 -2 310 -18z"/>
<path d="M57905 13570 c-10 -16 -29 -266 -22 -284 8 -20 111 -23 123 -4 12 18
73 282 68 290 -8 12 -162 10 -169 -2z"/>
</g>
</svg>
